<?xml version="1.0" encoding="UTF-8" standalone="no"?>
<!-- Created with Inkscape (http://www.inkscape.org/) -->

<svg
   xmlns:dc="http://purl.org/dc/elements/1.1/"
   xmlns:cc="http://creativecommons.org/ns#"
   xmlns:rdf="http://www.w3.org/1999/02/22-rdf-syntax-ns#"
   xmlns:svg="http://www.w3.org/2000/svg"
   xmlns="http://www.w3.org/2000/svg"
   xmlns:sodipodi="http://sodipodi.sourceforge.net/DTD/sodipodi-0.dtd"
   xmlns:inkscape="http://www.inkscape.org/namespaces/inkscape"
   width="134.66705mm"
   height="116.82016mm"
   viewBox="0 0 134.66705 116.82016"
   version="1.1"
   id="svg8"
   inkscape:version="0.92.5 (2060ec1f9f, 2020-04-08)"
   sodipodi:docname="wp_human_cells_logo.svg">
  <defs
     id="defs2">
    <inkscape:path-effect
       effect="spiro"
       id="path-effect1070"
       is_visible="true" />
    <inkscape:path-effect
       effect="bspline"
       id="path-effect1066"
       is_visible="true"
       weight="33.333333"
       steps="2"
       helper_size="0"
       apply_no_weight="true"
       apply_with_weight="true"
       only_selected="false" />
    <inkscape:path-effect
       effect="spiro"
       id="path-effect976"
       is_visible="true" />
    <inkscape:path-effect
       effect="bspline"
       id="path-effect972"
       is_visible="true"
       weight="33.333333"
       steps="2"
       helper_size="0"
       apply_no_weight="true"
       apply_with_weight="true"
       only_selected="false" />
    <inkscape:path-effect
       effect="spiro"
       id="path-effect964"
       is_visible="true" />
    <inkscape:path-effect
       effect="spiro"
       id="path-effect976-3"
       is_visible="true" />
    <inkscape:path-effect
       effect="spiro"
       id="path-effect976-3-6"
       is_visible="true" />
    <inkscape:path-effect
       effect="spiro"
       id="path-effect976-3-6-9"
       is_visible="true" />
    <inkscape:path-effect
       effect="spiro"
       id="path-effect1070-2"
       is_visible="true" />
    <inkscape:path-effect
       effect="spiro"
       id="path-effect1070-2-0"
       is_visible="true" />
  </defs>
  <sodipodi:namedview
     id="base"
     pagecolor="#ffffff"
     bordercolor="#666666"
     borderopacity="1.0"
     inkscape:pageopacity="0.0"
     inkscape:pageshadow="2"
     inkscape:zoom="0.49497475"
     inkscape:cx="656.21668"
     inkscape:cy="184.0726"
     inkscape:document-units="mm"
     inkscape:current-layer="layer1"
     showgrid="false"
     fit-margin-top="10"
     fit-margin-right="10"
     fit-margin-bottom="10"
     fit-margin-left="10"
     inkscape:window-width="1848"
     inkscape:window-height="1016"
     inkscape:window-x="72"
     inkscape:window-y="27"
     inkscape:window-maximized="1" />
  <metadata
     id="metadata5">
    <rdf:RDF>
      <cc:Work
         rdf:about="">
        <dc:format>image/svg+xml</dc:format>
        <dc:type
           rdf:resource="http://purl.org/dc/dcmitype/StillImage" />
        <dc:title></dc:title>
      </cc:Work>
    </rdf:RDF>
  </metadata>
  <g
     inkscape:label="Layer 1"
     inkscape:groupmode="layer"
     id="layer1"
     transform="translate(-24.172103,-116.56998)">
    <text
       xml:space="preserve"
       style="font-style:normal;font-weight:normal;font-size:14.60799503px;line-height:1.25;font-family:sans-serif;letter-spacing:0px;word-spacing:0px;fill:#000000;fill-opacity:1;stroke:none;stroke-width:0.36519986"
       x="36.939632"
       y="137.41185"
       id="text1122"
       inkscape:export-xdpi="200"
       inkscape:export-ydpi="200"><tspan
         sodipodi:role="line"
         id="tspan1120"
         x="36.939632"
         y="137.41185"
         style="font-weight:bold;stroke-width:0.36519986">WIKIPROJECT</tspan></text>
    <text
       xml:space="preserve"
       style="font-style:normal;font-weight:normal;font-size:14.60799503px;line-height:1.25;font-family:sans-serif;letter-spacing:0px;word-spacing:0px;fill:#000000;fill-opacity:1;stroke:none;stroke-width:0.36519986"
       x="32.831135"
       y="223.18329"
       id="text1122-3"
       inkscape:export-xdpi="200"
       inkscape:export-ydpi="200"><tspan
         sodipodi:role="line"
         id="tspan1120-6"
         x="32.831135"
         y="223.18329"
         style="font-weight:bold;stroke-width:0.36519986">HUMAN CELLS</tspan></text>
    <g
       id="g1160"
       transform="translate(2.3951106)"
       inkscape:export-xdpi="200"
       inkscape:export-ydpi="200">
      <path
         transform="matrix(0.9832186,0,0,0.75154915,1.5883079,46.039559)"
         inkscape:transform-center-y="2.801874"
         inkscape:transform-center-x="-2.5264999"
         d="M 92.158009,214.52433 C 83.416202,213.62842 63.86235,212.74061 56.6748,207.87838 51.071987,204.0882 44.639019,182.72154 45.130065,175.86412 c 0.629937,-8.79701 4.686321,-32.84718 10.895449,-39.63763 4.840117,-5.29327 22.934483,-7.31514 29.579135,-6.39076 8.524068,1.18584 29.024061,-0.35131 35.151021,5.94193 4.77606,4.90569 11.1422,20.02315 12.02302,27.2372 1.12996,9.25451 -4.5283,33.85891 -10.8953,40.62 -4.96319,5.27037 -22.911,11.58785 -29.725381,10.88947 z"
         inkscape:randomized="0.092"
         inkscape:rounded="0.23"
         inkscape:flatsided="false"
         sodipodi:arg2="2.3549507"
         sodipodi:arg1="1.4630331"
         sodipodi:r2="48.217945"
         sodipodi:r1="41.538635"
         sodipodi:cy="169.43301"
         sodipodi:cx="87.879486"
         sodipodi:sides="4"
         id="path830"
         style="opacity:1;vector-effect:none;fill:#ffffff;fill-opacity:1;stroke:#000000;stroke-width:3.16019893;stroke-linecap:butt;stroke-linejoin:miter;stroke-miterlimit:4;stroke-dasharray:none;stroke-dashoffset:0;stroke-opacity:1"
         sodipodi:type="star" />
      <path
         sodipodi:nodetypes="cccccccccccccccccccsccccccccccccccccccccccccc"
         inkscape:connector-curvature="0"
         id="path917"
         d="m 60.029282,175.75274 c -0.501778,-0.10902 -0.853827,-0.27326 -1.139704,-0.53153 -0.375501,-0.33925 -0.680398,-0.40363 -0.658299,-1.99888 0.0066,-0.47504 -0.01046,-0.47064 0.315034,-1.4133 l 0.290056,-0.58447 c 0.346934,-0.69906 0.928414,-1.67445 1.282428,-2.15115 1.681753,-2.2646 4.245658,-4.34294 6.540443,-5.30179 1.551522,-0.64827 3.787689,-0.84115 4.552926,-0.39269 0.325711,0.19087 0.67058,0.57551 0.827984,0.92344 0.175407,0.38774 0.210076,1.36901 0.07237,2.0486 -0.326976,1.6137 -1.493641,3.56707 -3.160224,5.29121 -0.902932,0.93413 -1.598867,1.52107 -2.518225,2.12385 -0.882443,0.57858 -2.612234,1.45067 -3.380125,1.70413 -1.079326,0.35625 -2.202861,0.46122 -3.024668,0.28258 z m 1.82294,-1.79192 c 0.01075,-0.0114 -0.04843,-0.29765 -0.131567,-0.63751 -0.269496,-1.1017 -0.263504,-1.61271 0.01941,-1.6539 0.205708,-0.03 0.567121,0.12687 1.572878,0.68243 1.020909,0.56391 1.482492,0.74195 1.923621,0.74195 0.639729,0 1.018874,-0.44484 1.017576,-1.19387 -6.69e-4,-0.33845 -0.02965,-0.44071 -0.221155,-0.77808 -0.121265,-0.21362 -0.534966,-0.79176 -0.919339,-1.28475 -1.004753,-1.28865 -1.163318,-1.71042 -0.708101,-1.8835 0.276787,-0.10523 1.181991,-0.0618 2.664071,0.12753 1.80157,0.23029 2.830745,0.25749 3.213731,0.085 0.591395,-0.26644 0.493537,-0.90072 -0.317345,-2.05693 -0.175495,-0.25024 -0.364937,-0.54478 -0.420987,-0.65456 -0.08838,-0.17309 -0.123149,-0.19427 -0.261793,-0.15946 -0.08794,0.0221 -0.168237,0.0484 -0.178447,0.0587 -0.04669,0.0467 0.190296,0.47491 0.597226,1.0791 0.508266,0.75466 0.665208,1.16997 0.503203,1.33161 -0.159907,0.15954 -1.624222,0.12785 -3.113807,-0.0674 -2.285586,-0.29961 -2.787049,-0.28137 -3.134156,0.11395 -0.393357,0.44801 -0.217826,0.90957 0.885112,2.32743 0.970976,1.24823 1.137372,1.57833 1.018374,2.02027 -0.03507,0.13024 -0.143758,0.31681 -0.241525,0.41457 -0.164753,0.16475 -0.200454,0.17508 -0.488139,0.14116 -0.31971,-0.0377 -0.896238,-0.30211 -2.162814,-0.99194 -0.77449,-0.42184 -1.1334,-0.5211 -1.432434,-0.39615 -0.11269,0.0471 -0.244532,0.16526 -0.296515,0.26579 -0.171643,0.33192 -0.10013,1.17271 0.182401,2.1446 0.08877,0.30536 0.102673,0.32096 0.252443,0.28337 0.08718,-0.0219 0.167313,-0.0486 0.178085,-0.0593 z"
         style="opacity:1;vector-effect:none;fill:#339966;fill-opacity:1;stroke:#000000;stroke-width:1.05299997;stroke-linecap:butt;stroke-linejoin:miter;stroke-miterlimit:4;stroke-dasharray:none;stroke-dashoffset:0;stroke-opacity:1" />
      <path
         inkscape:connector-curvature="0"
         id="path919"
         d="m 64.986263,156.73254 c -0.273055,-0.27193 -0.370055,-0.47826 -0.453125,-0.96458 -0.143686,-0.84127 0.03815,-1.43405 0.66389,-2.1643 2.064131,-2.40884 7.00452,-3.89315 11.168406,-3.35548 0.877949,0.11338 1.964417,0.39132 2.633138,0.67364 0.737078,0.3112 1.756845,1.01959 2.096377,1.45647 0.65543,0.84303 0.488104,1.79276 -0.506301,2.87381 -1.162758,1.26406 -2.611331,2.06363 -4.82042,2.66074 -0.927171,0.25061 -2.468828,0.54868 -3.26804,0.63186 -1.868301,0.19447 -3.897972,-0.0238 -5.381887,-0.57883 -0.582313,-0.21777 -1.846656,-0.94912 -2.132085,-1.23325 z m 2.263207,-1.0978 0.149022,0.0314 0.2112,-0.63458 c 0.199883,-0.6006 0.530495,-1.22969 0.718911,-1.36795 0.20725,-0.15209 0.528151,0.27412 1.337231,1.77572 0.729159,1.35337 1.323017,1.74637 2.030836,1.34395 0.231538,-0.13163 0.352732,-0.24543 0.488856,-0.45902 0.285716,-0.44818 0.310769,-0.82147 0.1598,-2.37503 -0.14795,-1.52249 -0.0689,-1.97479 0.345758,-1.97841 0.279254,-0.002 0.948319,0.46148 2.317329,1.60705 1.297809,1.08585 2.16686,1.67919 2.574802,1.75793 0.250243,0.0483 0.526035,-0.0468 0.637169,-0.21966 0.146197,-0.22742 0.240879,-0.92619 0.227229,-1.67686 -0.0084,-0.46028 -0.0064,-0.87162 0.0045,-0.91406 0.03167,-0.12428 -0.28306,-0.2024 -0.356359,-0.0884 -0.03358,0.0523 -0.05458,0.50071 -0.04663,0.99657 0.01388,0.86505 -0.06285,1.37123 -0.225992,1.49095 -0.228465,0.16766 -0.992646,-0.32236 -2.549248,-1.63393 -1.109852,-0.93579 -1.980322,-1.56525 -2.305782,-1.66743 -0.131652,-0.0411 -0.350865,-0.0483 -0.487296,-0.0155 -0.211204,0.0507 -0.272539,0.0985 -0.412994,0.3217 -0.221425,0.35168 -0.23889,0.68155 -0.112261,2.11278 0.102087,1.15383 0.08501,1.84722 -0.05071,2.05835 -0.09999,0.15556 -0.379772,0.37057 -0.546334,0.41986 -0.394965,0.11691 -0.759284,-0.22623 -1.331346,-1.25436 -0.86197,-1.54897 -0.963846,-1.70316 -1.244334,-1.88346 -0.598354,-0.38463 -1.022071,0.0351 -1.545491,1.53094 -0.122358,0.34969 -0.203302,0.64812 -0.179868,0.66318 0.02341,0.0151 0.109825,0.041 0.191743,0.0584 z"
         style="opacity:1;vector-effect:none;fill:#339966;fill-opacity:1;stroke:#000000;stroke-width:1.05299997;stroke-linecap:butt;stroke-linejoin:miter;stroke-miterlimit:4;stroke-dasharray:none;stroke-dashoffset:0;stroke-opacity:1" />
      <path
         sodipodi:nodetypes="ccsscccccccc"
         inkscape:connector-curvature="0"
         id="path1108"
         d="m 82.056951,201.51845 c -6.276893,-0.23857 -11.647388,-1.40026 -15.839743,-3.4263 -4.565927,-2.20657 -6.945632,-5.06158 -6.716891,-8.05843 0.351539,-4.60574 0.09653,-7.786 9.582298,-9.20333 2.957099,-0.44184 10.832591,-1.44525 14.505673,-1.44256 3.663493,0.003 4.500155,0.0585 7.426366,0.49511 5.821439,0.86865 12.281266,0.98801 15.142726,3.51554 1.72626,1.52481 1.29856,4.96113 1.42416,6.63524 0.16616,2.21507 -1.00734,4.24747 -3.55744,6.16108 -4.306387,3.23156 -11.462611,5.17047 -19.622292,5.31647 -0.947513,0.017 -2.002697,0.0202 -2.344857,0.008 z"
         style="opacity:1;vector-effect:none;fill:#006699;fill-opacity:1;stroke:#000000;stroke-width:1.89625907;stroke-linecap:butt;stroke-linejoin:miter;stroke-miterlimit:4;stroke-dasharray:none;stroke-dashoffset:0;stroke-opacity:1" />
      <path
         inkscape:connector-curvature="0"
         id="path1114"
         d="m 120.20765,186.9292 c -0.52785,-0.37263 -0.98418,-0.99322 -1.67951,-2.28413 -4.53635,-8.42212 -13.44781,-14.34275 -24.757555,-16.44856 -5.414167,-1.00808 -5.606952,-1.01976 -6.651621,-0.40234 -0.390827,0.23099 -1.005504,0.60784 -1.365964,0.83744 -1.112195,0.70844 -2.120144,0.55064 -2.640232,-0.41332 -0.490672,-0.90946 -0.09645,-2.03175 0.920737,-2.62127 0.287866,-0.16684 0.646267,-0.23987 1.17717,-0.23987 0.666707,0 0.882533,0.0656 1.705556,0.5181 1.466081,0.80613 1.687059,0.86635 4.121402,1.12321 6.539278,0.68995 12.325787,2.59522 17.326097,5.70478 2.38278,1.48177 3.74432,2.65356 6.76845,5.82516 2.66559,2.7956 3.56157,3.57238 5.43275,4.71005 1.2324,0.74929 1.72384,1.33422 1.78404,2.12345 0.0351,0.46106 -0.009,0.70709 -0.18547,1.02414 -0.40585,0.73081 -1.32746,0.98674 -1.95585,0.54316 z"
         style="opacity:1;vector-effect:none;fill:#990000;fill-opacity:1;stroke:#000000;stroke-width:1.23858559;stroke-linecap:butt;stroke-linejoin:miter;stroke-miterlimit:4;stroke-dasharray:none;stroke-dashoffset:0;stroke-opacity:1" />
      <path
         inkscape:connector-curvature="0"
         id="path1116"
         d="m 119.09558,174.54637 c -0.21712,-0.21544 -0.81613,-1.10893 -1.33114,-1.98552 -0.51498,-0.87659 -1.35559,-2.12913 -1.86798,-2.78341 -3.39434,-4.33433 -9.09172,-7.8136 -14.97197,-9.14307 -1.955921,-0.44222 -5.623214,-0.98358 -6.18626,-0.9132 -0.322172,0.0404 -0.683635,0.22217 -1.087889,0.54746 -1.357113,1.09202 -1.844713,1.19121 -2.456538,0.49976 -0.450765,-0.50941 -0.508573,-1.15809 -0.160673,-1.8029 0.514267,-0.9532 1.456185,-1.04389 2.921128,-0.28126 0.923663,0.48086 1.077073,0.52012 2.464302,0.63095 4.74912,0.37937 8.57396,1.47626 12.29956,3.52727 2.41964,1.33206 3.93997,2.57226 6.5814,5.36874 1.65351,1.75061 2.62311,2.60412 3.84841,3.38767 1.14433,0.73178 1.42989,1.00296 1.63816,1.55586 0.19987,0.53052 0.10755,1.03676 -0.26609,1.45901 -0.40651,0.45942 -0.91792,0.43522 -1.42442,-0.0674 z"
         style="opacity:1;vector-effect:none;fill:#990000;fill-opacity:1;stroke:#000000;stroke-width:1.23858559;stroke-linecap:butt;stroke-linejoin:miter;stroke-miterlimit:4;stroke-dasharray:none;stroke-dashoffset:0;stroke-opacity:1" />
      <path
         inkscape:connector-curvature="0"
         id="path1118"
         d="m 122.71979,165.34135 c -0.42603,-0.1903 -0.6454,-0.45951 -1.37395,-1.68607 -1.61728,-2.72289 -3.1865,-4.48976 -5.65034,-6.36203 -3.14136,-2.38712 -7.23368,-4.12271 -11.32779,-4.80422 -4.37767,-0.72871 -4.28476,-0.73132 -5.411325,0.15206 -0.72421,0.56788 -1.204015,0.70686 -1.676609,0.48563 -0.765926,-0.35853 -0.845259,-1.44678 -0.155386,-2.13133 0.562169,-0.55782 1.230641,-0.53866 2.422346,0.0694 0.804944,0.41075 1.038974,0.46865 2.300794,0.56939 3.97265,0.31714 7.38892,1.24198 10.61302,2.87311 2.31511,1.17125 3.84523,2.34379 6.1854,4.73988 1.7342,1.77558 2.84552,2.72999 3.92389,3.36981 0.95604,0.56725 1.37469,1.07621 1.37469,1.67123 0,0.75364 -0.64791,1.31076 -1.22474,1.05311 z"
         style="opacity:1;vector-effect:none;fill:#990000;fill-opacity:1;stroke:#000000;stroke-width:1.23858559;stroke-linecap:butt;stroke-linejoin:miter;stroke-miterlimit:4;stroke-dasharray:none;stroke-dashoffset:0;stroke-opacity:1" />
      <path
         transform="scale(0.26458333)"
         inkscape:connector-curvature="0"
         id="path1150"
         d="m 348.88987,778.68518 c -0.55559,-0.10771 -6.69227,-0.55748 -13.63706,-0.9995 -58.0924,-3.69742 -87.74788,-7.51975 -106.46771,-13.72273 -4.10392,-1.35986 -8.15191,-3.07539 -9.84898,-4.17398 -12.4795,-8.07843 -29.12955,-39.16812 -36.80008,-68.7147 -2.42503,-9.34111 -2.72704,-15.75135 -1.21357,-25.75889 4.3605,-28.833 13.19744,-59.40763 22.99208,-79.54951 6.52424,-13.41658 12.36545,-20.78036 19.35347,-24.39813 11.60667,-6.0089 33.38531,-10.76414 60.97208,-13.31289 9.04205,-0.8354 35.72418,-0.86317 47.22463,-0.0492 4.86136,0.3441 16.56651,0.85959 26.01143,1.14553 45.55557,1.37921 64.87247,3.28243 80.05459,7.88745 6.99113,2.12054 11.25733,4.4768 15.73889,8.69273 14.79287,13.91608 33.66152,46.61115 39.11347,67.77474 1.27969,4.96757 1.3286,5.62524 1.06649,14.34091 -0.36561,12.15737 -2.01287,21.56898 -6.69361,38.24383 -7.91221,28.18682 -20.81511,53.42593 -32.15711,62.9019 -14.23395,11.89213 -69.25376,28.38392 -98.89049,29.64171 -3.1946,0.13558 -6.26294,0.15839 -6.81852,0.0507 z m -9.84899,-14.58986 c 37.71129,-4.92666 64.81822,-19.30978 70.27984,-37.29095 0.96066,-3.16277 1.02807,-4.34029 0.79635,-13.91057 -0.3373,-13.93086 -1.54749,-18.09464 -6.57221,-22.6123 -6.96007,-6.2577 -16.10349,-8.80168 -44.30093,-12.3259 -9.02824,-1.12838 -17.66504,-2.28669 -19.1929,-2.57401 -4.48027,-0.84254 -29.28835,-1.17548 -37.73184,-0.50639 -15.12355,1.19843 -40.45326,4.36866 -49.12307,6.14817 -11.75919,2.41362 -18.70502,5.49527 -23.75277,10.5384 -3.70769,3.70428 -5.1314,6.26195 -6.53027,11.73145 -1.37949,5.39377 -2.18862,15.85271 -1.54947,20.02878 2.62403,17.145 25.19172,32.17172 58.07827,38.67149 5.63337,1.1134 15.3814,2.46686 21.71828,3.01549 5.78346,0.50071 31.87062,-0.12849 37.88072,-0.91366 z M 460.5925,708.93229 c 2.73681,-1.2987 4.21237,-3.88693 4.21237,-7.38878 0,-5.25698 -1.62511,-7.23943 -10.85914,-13.24689 -3.57627,-2.32664 -7.18464,-5.60785 -16.92006,-15.38592 -16.28472,-16.35607 -22.59596,-21.18411 -37.27888,-28.51796 -16.70424,-8.34346 -32.11727,-12.76868 -54.52114,-15.65353 -9.48871,-1.22181 -9.8393,-1.30942 -14.56561,-3.63961 -5.33298,-2.62929 -8.56986,-3.22239 -12.22091,-2.23927 -2.84996,0.76741 -6.36815,4.15507 -7.18995,6.92317 -1.74107,5.86457 2.41604,11.7933 8.26923,11.7933 1.64254,0 4.41675,-1.2551 11.07637,-5.01113 2.61805,-1.47658 3.18935,-1.61187 5.55584,-1.31563 4.62107,0.57848 17.08612,2.79873 23.09331,4.11334 38.71491,8.47237 68.81899,28.96816 85.63494,58.3029 5.33446,9.30575 8.10204,12.09012 12.02099,12.09392 1.06918,10e-4 2.73087,-0.37151 3.69264,-0.82791 z M 236.61887,665.8573 c 4.2773,-1.09395 11.55385,-4.56929 16.72319,-7.98714 4.40169,-2.91029 11.06418,-9.50784 14.4577,-14.31677 5.1218,-7.25804 7.09643,-12.42392 7.09643,-18.56514 0,-4.5022 -1.36057,-7.35363 -4.41495,-9.25266 -1.64786,-1.02454 -2.53198,-1.17857 -6.69673,-1.16668 -5.6348,0.0161 -8.97751,0.74671 -14.08328,3.0782 -12.16824,5.55648 -24.22331,17.53782 -29.94245,29.75933 -2.71063,5.79249 -2.51139,12.65032 0.45367,15.61538 3.72108,3.72109 9.22469,4.67226 16.40642,2.83548 z m 219.07095,-2.80252 c 2.16058,-1.11728 3.56069,-3.73456 3.5509,-6.63785 -0.0131,-3.8912 -1.4838,-5.8758 -7.42379,-10.01794 -3.58596,-2.5006 -8.2836,-6.68456 -15.40483,-13.72032 -10.83796,-10.70791 -14.86092,-13.9929 -22.61993,-18.47054 -13.80724,-7.968 -27.91697,-12.3388 -46.21448,-14.31599 -6.36304,-0.68757 -8.1827,-1.08378 -11.36422,-2.4744 -4.71987,-2.06303 -7.0104,-2.49923 -9.54283,-1.81732 -2.38133,0.64122 -4.81855,3.23636 -5.65202,6.01826 -0.91574,3.05644 -0.21991,5.48337 2.29247,7.99575 3.35093,3.35093 5.84055,2.93468 12.8508,-2.14854 2.07936,-1.50777 2.38025,-1.51304 11.35023,-0.19883 14.9086,2.18429 24.4579,4.9598 35.42091,10.29509 17.22747,8.38396 29.40972,19.10325 38.60646,33.9702 7.27372,11.75831 9.76744,13.78891 14.15033,11.52243 z m 12.95075,-36.66979 c 1.33484,-1.10783 2.22522,-3.35916 2.22522,-5.62653 0,-3.14662 -1.78315,-5.42701 -6.85582,-8.76763 -2.72819,-1.79665 -7.60381,-6.02411 -13.29833,-11.53046 -12.77294,-12.35087 -18.2983,-16.26228 -30.17385,-21.36008 -10.67418,-4.58208 -19.92321,-6.87622 -34.15781,-8.47253 -4.65061,-0.52153 -6.92364,-1.03862 -9.20584,-2.09424 -4.2803,-1.97982 -8.27759,-2.21797 -10.61991,-0.63272 -6.16952,4.17547 -4.21197,13.57192 2.82741,13.57192 2.04594,0 2.94468,-0.35555 5.74517,-2.27284 3.75949,-2.57385 4.05128,-2.61205 11.52083,-1.50844 13.86808,2.04897 23.85144,4.89618 33.59573,9.58135 14.07372,6.76681 25.70359,16.62385 33.25072,28.18206 6.82526,10.45269 6.93062,10.58808 8.94013,11.48777 2.07663,0.92973 4.69797,0.69421 6.20635,-0.55763 z M 277.73422,600.90207 c 12.2403,-2.11125 21.05136,-5.66747 26.46867,-10.68294 6.91919,-6.40595 7.78136,-12.10346 2.56928,-16.97875 -3.25421,-3.04393 -6.12787,-4.61045 -11.42039,-6.2256 -4.21331,-1.2858 -5.19199,-1.38756 -13.38452,-1.39174 -7.23111,-0.004 -9.67507,0.1901 -13.43621,1.06538 -12.6153,2.9358 -23.15756,9.39255 -25.95565,15.89689 -1.3659,3.17513 -1.19587,7.8086 0.36514,9.95015 1.342,1.84109 6.63167,5.31697 10.02171,6.58535 6.58795,2.46487 16.62459,3.18656 24.77197,1.78126 z"
         style="opacity:1;vector-effect:none;fill:#fff7d7;fill-opacity:1;stroke:none;stroke-width:2.01012397;stroke-linecap:butt;stroke-linejoin:miter;stroke-miterlimit:4;stroke-dasharray:none;stroke-dashoffset:0;stroke-opacity:1" />
    </g>
  </g>
</svg>
